<?xml version="1.0" encoding="UTF-8"?>
<svg version="1.1" xmlns="http://www.w3.org/2000/svg" width="128" height="128">
<path d="M0 0 C2 1 2 1 2.74609375 2.70239258 C2.97425781 3.42579834 3.20242187 4.1492041 3.4375 4.89453125 C3.69273438 5.68537109 3.94796875 6.47621094 4.2109375 7.29101562 C4.47132812 8.12310547 4.73171875 8.95519531 5 9.8125 C5.51805747 11.44489396 6.03880549 13.07643698 6.5625 14.70703125 C6.90474609 15.79721558 6.90474609 15.79721558 7.25390625 16.90942383 C8.01494048 19.04186366 8.94748818 20.99746075 10 23 C10.04898438 21.90300781 10.09796875 20.80601563 10.1484375 19.67578125 C10.22350591 18.22133075 10.29905197 16.76690484 10.375 15.3125 C10.42140625 14.2306543 10.42140625 14.2306543 10.46875 13.12695312 C10.69335587 9.02789606 11.17740909 5.75631541 13 2 C14.91903348 4.87855023 15.68246213 7.23801009 16.54614258 10.54663086 C20.36023821 25.06464566 27.29797224 41.1198213 40 50 C39.95359375 48.77023438 39.9071875 47.54046875 39.859375 46.2734375 C39.82183964 44.6406494 39.78544138 43.00783489 39.75 41.375 C39.69972656 40.16263672 39.69972656 40.16263672 39.6484375 38.92578125 C39.55980648 33.47497322 40.2029443 30.22406024 44 26 C46.90213288 24.47506108 49.73170129 24.06230725 53 24 C56.46090317 25.25851024 58.41487686 26.41487686 61 29 C61.125 31.625 61.125 31.625 61 34 C63.31 34.33 65.62 34.66 68 35 C68 36.32 68 37.64 68 39 C67.02289063 39.55300781 66.04578125 40.10601562 65.0390625 40.67578125 C61.89813088 42.58872144 61.89813088 42.58872144 61.47558594 44.95068359 C61.32706352 47.375338 61.32403417 49.75890794 61.375 52.1875 C61.21552419 61.50018652 60.19565638 67.76348309 53.75 74.8125 C47.01068064 81.05905192 40.05003337 83.1740391 31 83 C31.51881113 78.8275894 32.71151274 76.74583179 35.5625 73.6875 C36.20316406 72.99011719 36.84382813 72.29273437 37.50390625 71.57421875 C37.99761719 71.05472656 38.49132812 70.53523438 39 70 C37.98421875 69.97421875 36.9684375 69.9484375 35.921875 69.921875 C19.8886854 69.33913436 8.90063226 65.45764233 -2.3125 53.625 C-8.25989791 46.63503034 -10.42393634 40.07300267 -11 31 C-10.01 31.33 -9.02 31.66 -8 32 C-8.309375 30.948125 -8.61875 29.89625 -8.9375 28.8125 C-10.39032585 23.59941899 -11.12211328 19.11230842 -11.0625 13.6875 C-11.05347656 12.61886719 -11.04445313 11.55023438 -11.03515625 10.44921875 C-11.02355469 9.64097656 -11.01195312 8.83273437 -11 8 C-7.58816342 9.70591829 -6.58819426 13.60862181 -5 16.9375 C-4.29538011 18.4067346 -3.58719392 19.8742656 -2.875 21.33984375 C-2.56304687 21.99331787 -2.25109375 22.64679199 -1.9296875 23.32006836 C-0.99801983 25.18618028 -0.99801983 25.18618028 1 27 C0.67 25.80375 0.34 24.6075 0 23.375 C-1.64602026 16.03211531 -2.24367945 7.26952143 0 0 Z M11 25 C12 27 12 27 12 27 Z M50 34 C49.37799027 37.37213153 49.37799027 37.37213153 49.125 41.25 C48.52583531 47.28526148 47.6656335 50.94826564 43 55 C45.64 56.98 48.28 58.96 51 61 C54.89459074 59.31622777 54.89459074 59.31622777 57 57 C57.58610371 54.67171371 57.58610371 54.67171371 57 52 C55.71863878 50.52643459 54.43519914 49.05415838 53.1171875 47.61328125 C51.1964559 44.83963736 51.63469225 42.22688513 52 39 C52.33 38.01 52.66 37.02 53 36 C55.0625 35.3125 55.0625 35.3125 57 35 C57 34.34 57 33.68 57 33 C53.51418144 31.7979936 53.32007656 31.78661563 50 34 Z " fill="#2FAAEA" transform="translate(26,0)"/>
<path d="M0 0 C2.25 1.64453125 2.25 1.64453125 3.84375 3.73828125 C4.51676623 8.55293583 2.04221662 12.0096764 -0.25 16.14453125 C-0.68570313 16.98628906 -1.12140625 17.82804687 -1.5703125 18.6953125 C-4.32699767 23.81371918 -6.89862717 27.38604786 -11.75 30.64453125 C-15.125 30.95703125 -15.125 30.95703125 -17.75 30.64453125 C-18.03571429 23.21595982 -18.03571429 23.21595982 -15.75 19.64453125 C-20.00208005 22.96322787 -23.46222019 26.5067048 -26.96875 30.59765625 C-32.80729128 37.30685719 -39.47357784 44.04972163 -47.75 47.64453125 C-50.5 47.76953125 -50.5 47.76953125 -52.75 47.64453125 C-53.4427665 41.29417163 -52.3592244 37.99100769 -48.5625 32.8671875 C-36.64187173 18.24900326 -18.94219467 11.38523332 -1.75 4.64453125 C-15.4643625 8.31232587 -27.36312705 14.68533825 -39.49609375 21.84765625 C-48.47793486 26.80761652 -48.47793486 26.80761652 -52.1875 26.33203125 C-52.703125 26.10515625 -53.21875 25.87828125 -53.75 25.64453125 C-53.4258473 20.29601176 -50.4714029 17.18678565 -46.75 13.64453125 C-35.23820338 4.33766673 -19.88089283 3.36819833 -5.75 1.64453125 C-15.84005762 3.11217599 -25.5334125 3.93187277 -35.75 3.64453125 C-36.08 1.99453125 -36.41 0.34453125 -36.75 -1.35546875 C-25.34887288 -10.90776444 -12.09845989 -5.96330338 0 0 Z M-5.375 10.14453125 C-6.15875 10.96953125 -6.9425 11.79453125 -7.75 12.64453125 C-4.09683329 11.39476369 -2.96934164 10.97354372 -0.75 7.64453125 C-3.11278736 7.41464619 -3.11278736 7.41464619 -5.375 10.14453125 Z M-9.75 12.64453125 C-10.74 14.12953125 -10.74 14.12953125 -11.75 15.64453125 C-10.43 14.98453125 -9.11 14.32453125 -7.75 13.64453125 C-8.41 13.31453125 -9.07 12.98453125 -9.75 12.64453125 Z " fill="#1E73AF" transform="translate(53.75,79.35546875)"/>
<path d="M0 0 C1.50715324 -0.01925285 1.50715324 -0.01925285 3.04475403 -0.03889465 C4.13430893 -0.04628159 5.22386383 -0.05366852 6.34643555 -0.0612793 C7.46374557 -0.06935104 8.5810556 -0.07742279 9.73222351 -0.08573914 C12.10027511 -0.09958751 14.46834673 -0.11030628 16.83642578 -0.11816406 C20.45798568 -0.13537841 24.07863329 -0.17925933 27.69995117 -0.22338867 C29.99877257 -0.2335152 32.29760175 -0.24203142 34.59643555 -0.2487793 C35.67991776 -0.26628738 36.76339996 -0.28379547 37.87971497 -0.30183411 C45.41083497 -0.28011033 45.41083497 -0.28011033 49.33154297 2.07861328 C52.91993606 6.17289691 52.55536235 9.96537327 52.5300293 15.24731445 C52.1706543 18.17700195 52.1706543 18.17700195 49.7956543 21.36450195 C46.34458021 23.74738644 44.67283583 24.30603254 40.54077148 24.35400391 C39.57927185 24.36683914 38.61777222 24.37967438 37.62713623 24.39289856 C36.0631308 24.40397896 36.0631308 24.40397896 34.4675293 24.4152832 C33.39698303 24.42335495 32.32643677 24.4314267 31.22344971 24.43974304 C28.95375187 24.45359173 26.68403313 24.46431036 24.41430664 24.47216797 C20.94857079 24.48936344 17.48379297 24.53324159 14.01831055 24.57739258 C11.81389048 24.58752086 9.6094623 24.59603654 7.4050293 24.6027832 C5.85316925 24.62904533 5.85316925 24.62904533 4.2699585 24.65583801 C-1.7367071 24.63779802 -5.27467839 24.22617092 -9.8293457 20.17700195 C-11.91474724 16.00619889 -11.28361684 10.71971331 -10.8293457 6.17700195 C-7.87595502 1.15623778 -5.61962183 0.06240442 0 0 Z " fill="#2C54B2" transform="translate(75.829345703125,82.822998046875)"/>
<path d="M0 0 C2.125 2.25 2.125 2.25 2.4375 5 C2.334375 5.7425 2.23125 6.485 2.125 7.25 C4.435 7.58 6.745 7.91 9.125 8.25 C9.125 9.57 9.125 10.89 9.125 12.25 C8.14789063 12.80300781 7.17078125 13.35601562 6.1640625 13.92578125 C3.02313088 15.83872144 3.02313088 15.83872144 2.60058594 18.20068359 C2.45206352 20.625338 2.44903417 23.00890794 2.5 25.4375 C2.34052419 34.75018652 1.32065638 41.01348309 -5.125 48.0625 C-11.86431936 54.30905192 -18.82496663 56.4240391 -27.875 56.25 C-27.35618887 52.0775894 -26.16348726 49.99583179 -23.3125 46.9375 C-22.67183594 46.24011719 -22.03117187 45.54273438 -21.37109375 44.82421875 C-20.87738281 44.30472656 -20.38367188 43.78523438 -19.875 43.25 C-20.89078125 43.22421875 -21.9065625 43.1984375 -22.953125 43.171875 C-43.20911552 42.4263163 -43.20911552 42.4263163 -49.69921875 36.6171875 C-50.08722656 36.16601562 -50.47523437 35.71484375 -50.875 35.25 C-50.111875 35.29125 -49.34875 35.3325 -48.5625 35.375 C-45.64781584 35.47080824 -45.64781584 35.47080824 -42.875 33.25 C-43.535 32.92 -44.195 32.59 -44.875 32.25 C-43.225 31.59 -41.575 30.93 -39.875 30.25 C-39.875 30.91 -39.875 31.57 -39.875 32.25 C-37.895 32.58 -35.915 32.91 -33.875 33.25 C-33.545 31.6 -33.215 29.95 -32.875 28.25 C-32.215 28.25 -31.555 28.25 -30.875 28.25 C-30.875 29.24 -30.875 30.23 -30.875 31.25 C-30.215 31.25 -29.555 31.25 -28.875 31.25 C-28.875 29.6 -28.875 27.95 -28.875 26.25 C-28.215 26.25 -27.555 26.25 -26.875 26.25 C-26.875 25.59 -26.875 24.93 -26.875 24.25 C-26.215 24.25 -25.555 24.25 -24.875 24.25 C-25.555625 23.693125 -26.23625 23.13625 -26.9375 22.5625 C-27.576875 21.799375 -28.21625 21.03625 -28.875 20.25 C-28.625 17.5 -28.625 17.5 -27.875 15.25 C-27.1325 16.013125 -26.39 16.77625 -25.625 17.5625 C-23.44109138 19.69677433 -21.3285172 21.46228768 -18.875 23.25 C-18.92140625 22.02023438 -18.9678125 20.79046875 -19.015625 19.5234375 C-19.05316036 17.8906494 -19.08955862 16.25783489 -19.125 14.625 C-19.17527344 13.41263672 -19.17527344 13.41263672 -19.2265625 12.17578125 C-19.31561303 6.69917381 -18.59635004 3.55574977 -14.875 -0.75 C-9.40031779 -3.4873411 -5.18908842 -3.15857556 0 0 Z M-8.875 7.25 C-9.49700973 10.62213153 -9.49700973 10.62213153 -9.75 14.5 C-10.34916469 20.53526148 -11.2093665 24.19826564 -15.875 28.25 C-13.235 30.23 -10.595 32.21 -7.875 34.25 C-3.98040926 32.56622777 -3.98040926 32.56622777 -1.875 30.25 C-1.28889629 27.92171371 -1.28889629 27.92171371 -1.875 25.25 C-3.15636122 23.77643459 -4.43980086 22.30415838 -5.7578125 20.86328125 C-7.6785441 18.08963736 -7.24030775 15.47688513 -6.875 12.25 C-6.545 11.26 -6.215 10.27 -5.875 9.25 C-3.8125 8.5625 -3.8125 8.5625 -1.875 8.25 C-1.875 7.59 -1.875 6.93 -1.875 6.25 C-5.36081856 5.0479936 -5.55492344 5.03661563 -8.875 7.25 Z " fill="#1A6BC9" transform="translate(84.875,26.75)"/>
<path d="M0 0 C1.43836751 0.11458693 2.87570966 0.24209116 4.3125 0.375 C5.51326172 0.47941406 5.51326172 0.47941406 6.73828125 0.5859375 C9 1 9 1 12 3 C11.3125 4.8125 11.3125 4.8125 10 7 C9.15953125 7.35191406 8.3190625 7.70382813 7.453125 8.06640625 C4.86606399 9.69163049 4.86606399 9.69163049 4.56323242 11.87524414 C4.42401564 14.29960878 4.41111694 16.69683275 4.4375 19.125 C4.22993852 28.44259169 3.19786732 34.76106519 -3.25 41.8125 C-9.98931936 48.05905192 -16.94996663 50.1740391 -26 50 C-25.48118887 45.8275894 -24.28848726 43.74583179 -21.4375 40.6875 C-20.79683594 39.99011719 -20.15617187 39.29273438 -19.49609375 38.57421875 C-18.75552734 37.79498047 -18.75552734 37.79498047 -18 37 C-18.99 36.34 -19.98 35.68 -21 35 C-21.33 34.34 -21.66 33.68 -22 33 C-20.515 32.505 -20.515 32.505 -19 32 C-18.67 31.34 -18.34 30.68 -18 30 C-14.9375 29.375 -14.9375 29.375 -12 29 C-12.33 28.67 -12.66 28.34 -13 28 C-13.66 28 -14.32 28 -15 28 C-14.34 26.02 -13.68 24.04 -13 22 C-10.69 23.65 -8.38 25.3 -6 27 C-3.3094472 25.77992056 -3.3094472 25.77992056 -1 24 C-0.49620971 21.71305777 -0.49620971 21.71305777 -1 19 C-2.28030455 17.52764976 -3.56213738 16.05631252 -4.87109375 14.609375 C-6.88777999 11.73437593 -6.55635673 9.33814038 -6 6 C-4.125 3.5625 -4.125 3.5625 -2 2 C-1.34 2 -0.68 2 0 2 C0 1.34 0 0.68 0 0 Z " fill="#0C3FAC" transform="translate(83,33)"/>
<path d="M0 0 C0.94147888 -0.0159874 1.88295776 -0.03197479 2.85296631 -0.04844666 C3.87376282 -0.05380936 4.89455933 -0.05917206 5.94628906 -0.06469727 C6.99463928 -0.07372574 8.0429895 -0.08275421 9.12310791 -0.09205627 C11.34571466 -0.10658602 13.56836444 -0.11545224 15.79101562 -0.11914062 C19.18465936 -0.13100821 22.57646846 -0.18014456 25.96972656 -0.23071289 C28.12857185 -0.2401801 30.28742832 -0.24741371 32.44628906 -0.25219727 C33.45898865 -0.27172958 34.47168823 -0.2912619 35.51507568 -0.31138611 C40.08122529 -0.28229882 43.42467356 -0.24455005 47.08911133 2.67138672 C50.4088358 6.357958 50.56712737 8.89837372 50.77441406 13.70483398 C50.46191406 16.30639648 50.46191406 16.30639648 48.14941406 19.43139648 C44.60943494 21.90114936 42.98651791 22.43081855 38.73681641 22.41992188 C37.75595062 22.41984634 36.77508484 22.41977081 35.76449585 22.41969299 C34.70300323 22.41453171 33.64151062 22.40937042 32.54785156 22.40405273 C31.46307526 22.40263779 30.37829895 22.40122284 29.26065063 22.39976501 C25.78604406 22.39415451 22.31150125 22.3816002 18.83691406 22.36889648 C16.48535249 22.36388284 14.13378991 22.3593197 11.78222656 22.35522461 C6.0087672 22.34418166 0.23534519 22.32743328 -5.53808594 22.30639648 C-4.54808594 21.31639648 -3.55808594 20.32639648 -2.53808594 19.30639648 C-2.86808594 18.64639648 -3.19808594 17.98639648 -3.53808594 17.30639648 C-3.60804607 15.59936913 -3.62248748 13.88971646 -3.60058594 12.18139648 C-3.5915625 11.27131836 -3.58253906 10.36124023 -3.57324219 9.42358398 C-3.56164062 8.72491211 -3.55003906 8.02624023 -3.53808594 7.30639648 C-2.87808594 6.97639648 -2.21808594 6.64639648 -1.53808594 6.30639648 C-1.53808594 9.27639648 -1.53808594 12.24639648 -1.53808594 15.30639648 C-0.54808594 15.30639648 0.44191406 15.30639648 1.46191406 15.30639648 C1.79191406 14.31639648 2.12191406 13.32639648 2.46191406 12.30639648 C2.79191406 13.29639648 3.12191406 14.28639648 3.46191406 15.30639648 C4.78191406 15.30639648 6.10191406 15.30639648 7.46191406 15.30639648 C7.46191406 12.33639648 7.46191406 9.36639648 7.46191406 6.30639648 C7.79191406 6.30639648 8.12191406 6.30639648 8.46191406 6.30639648 C8.46191406 9.27639648 8.46191406 12.24639648 8.46191406 15.30639648 C10.77191406 15.30639648 13.08191406 15.30639648 15.46191406 15.30639648 C15.46191406 12.33639648 15.46191406 9.36639648 15.46191406 6.30639648 C15.79191406 6.30639648 16.12191406 6.30639648 16.46191406 6.30639648 C16.46191406 9.27639648 16.46191406 12.24639648 16.46191406 15.30639648 C17.45191406 15.30639648 18.44191406 15.30639648 19.46191406 15.30639648 C19.46191406 13.98639648 19.46191406 12.66639648 19.46191406 11.30639648 C20.39003906 11.18264648 20.39003906 11.18264648 21.33691406 11.05639648 C23.99681386 10.39425442 23.99681386 10.39425442 25.46191406 6.30639648 C25.46191406 9.27639648 25.46191406 12.24639648 25.46191406 15.30639648 C27.44191406 15.30639648 29.42191406 15.30639648 31.46191406 15.30639648 C31.11128906 14.74952148 30.76066406 14.19264648 30.39941406 13.61889648 C29.24345413 10.76752865 29.65223968 9.22122426 30.46191406 6.30639648 C32.96191406 8.55639648 32.96191406 8.55639648 35.46191406 11.30639648 C35.46191406 12.62639648 35.46191406 13.94639648 35.46191406 15.30639648 C36.12191406 15.30639648 36.78191406 15.30639648 37.46191406 15.30639648 C37.60628906 14.35764648 37.75066406 13.40889648 37.89941406 12.43139648 C38.46191406 9.30639648 38.46191406 9.30639648 39.46191406 7.30639648 C40.12191406 7.30639648 40.78191406 7.30639648 41.46191406 7.30639648 C41.79191406 5.98639648 42.12191406 4.66639648 42.46191406 3.30639648 C18.20691406 2.81139648 18.20691406 2.81139648 -6.53808594 2.30639648 C-4.08164415 -0.1500453 -3.37906297 0.04330713 0 0 Z " fill="#264A9E" transform="translate(77.5380859375,84.693603515625)"/>
<path d="M0 0 C1.21429688 -0.02578125 2.42859375 -0.0515625 3.6796875 -0.078125 C7.36441521 0.27280145 9.20316773 1.02897621 12.125 3.25 C13.64720138 6.29440276 13.51316176 9.47471986 13.74609375 12.83984375 C13.99277079 15.50530027 13.99277079 15.50530027 16.125 18.25 C15.96979131 21.35417382 15.52615522 22.80427198 13.4375 25.125 C10.26250771 26.66959084 8.45697451 26.2640792 5.125 25.25 C3.125 22.25 3.125 22.25 3.125 19.25 C1.76375 19.930625 1.76375 19.930625 0.375 20.625 C-2.04166667 21.83333333 -4.45833333 23.04166667 -6.875 24.25 C-6.875 22.27 -6.875 20.29 -6.875 18.25 C-7.679375 17.96125 -8.48375 17.6725 -9.3125 17.375 C-11.875 16.25 -11.875 16.25 -12.875 14.25 C-13.28909424 10.12498429 -13.51421241 6.46754745 -11.5625 2.75 C-8.14155032 -0.29084416 -4.36758175 0.05540273 0 0 Z " fill="#E3E8F3" transform="translate(105.875,8.75)"/>
<path d="M0 0 C8.16113744 9.90995261 8.16113744 9.90995261 8 17 C8.99 17.66 9.98 18.32 11 19 C11 19.66 11 20.32 11 21 C10.34 21 9.68 21 9 21 C9.66 22.32 10.32 23.64 11 25 C10.01 24.67 9.02 24.34 8 24 C7.67 25.32 7.34 26.64 7 28 C6.34 28 5.68 28 5 28 C5 27.01 5 26.02 5 25 C4.34 25 3.68 25 3 25 C3.495 27.475 3.495 27.475 4 30 C0.37673261 31.2077558 -0.64146369 30.54311128 -4 29 C-4 28.34 -4 27.68 -4 27 C-5.98 27.99 -5.98 27.99 -8 29 C-8 29.99 -8 30.98 -8 32 C-10.76604518 33.38302259 -12.8106145 32.83241669 -15.71484375 32.03125 C-23.66418841 28.44385344 -28.38028625 20.56733902 -31.9140625 12.953125 C-33.41203284 8.8795078 -33.85576062 5.32718133 -34 1 C-30.58991946 2.13669351 -29.95621779 2.99396636 -27.875 5.8125 C-27.35679688 6.49957031 -26.83859375 7.18664063 -26.3046875 7.89453125 C-25.01516762 9.97552291 -24.50410964 11.62862709 -24 14 C-23.67 14.33 -23.34 14.66 -23 15 C-22.85884839 17.67058851 -22.95752893 20.32432238 -23 23 C-22.01 23 -21.02 23 -20 23 C-19.34 22.34 -18.68 21.68 -18 21 C-15.375 21.375 -15.375 21.375 -13 22 C-13 22.99 -13 23.98 -13 25 C-12.01 24.67 -11.02 24.34 -10 24 C-9.01 24 -8.02 24 -7 24 C-6.67 22.35 -6.34 20.7 -6 19 C-5.01 19.33 -4.02 19.66 -3 20 C-1.98888907 16.95086772 -1.98888907 16.95086772 -3 14 C-2.34 13.34 -1.68 12.68 -1 12 C-0.34 12.66 0.32 13.32 1 14 C2.09201037 10.06876267 1.87776502 8.53461651 0 5 C-0.125 2.25 -0.125 2.25 0 0 Z " fill="#258BD9" transform="translate(49,30)"/>
<path d="M0 0 C0.93423645 3.01031744 1.04449911 3.86650268 0 7 C-0.99 7.495 -0.99 7.495 -2 8 C-3.21081851 11.10540926 -3.21081851 11.10540926 -3 15 C-0.65941363 12.87219421 0.70700306 10.88437779 2 8 C3.98 8 5.96 8 8 8 C0.95238796 16.42275585 -6.69238671 25.52295585 -17 30 C-19.75 30.125 -19.75 30.125 -22 30 C-22.69208479 23.65588945 -21.60490812 20.36583735 -17.8359375 15.234375 C-12.6295086 8.89804025 -7.19011507 3.97751047 0 0 Z " fill="#0E49B7" transform="translate(23,97)"/>
<path d="M0 0 C1.19367188 -0.00128906 2.38734375 -0.00257812 3.6171875 -0.00390625 C4.87015625 -0.00003906 6.123125 0.00382812 7.4140625 0.0078125 C8.65929687 0.00394531 9.90453125 0.00007813 11.1875 -0.00390625 C12.38375 -0.00261719 13.58 -0.00132813 14.8125 0 C15.90997559 0.00112793 17.00745117 0.00225586 18.13818359 0.00341797 C20.62139083 0.11418214 22.67403075 0.41090072 25.0390625 1.1328125 C25.0390625 2.1228125 25.0390625 3.1128125 25.0390625 4.1328125 C24.3790625 4.1328125 23.7190625 4.1328125 23.0390625 4.1328125 C22.3790625 6.7728125 21.7190625 9.4128125 21.0390625 12.1328125 C20.3790625 12.1328125 19.7190625 12.1328125 19.0390625 12.1328125 C18.5853125 10.9984375 18.1315625 9.8640625 17.6640625 8.6953125 C16.46810444 5.08559558 16.46810444 5.08559558 14.0390625 4.1328125 C14.3690625 6.7728125 14.6990625 9.4128125 15.0390625 12.1328125 C13.0590625 12.1328125 11.0790625 12.1328125 9.0390625 12.1328125 C8.7090625 10.4828125 8.3790625 8.8328125 8.0390625 7.1328125 C6.3890625 7.4628125 4.7390625 7.7928125 3.0390625 8.1328125 C3.0390625 9.4528125 3.0390625 10.7728125 3.0390625 12.1328125 C-0.5909375 12.1328125 -4.2209375 12.1328125 -7.9609375 12.1328125 C-7.9609375 8.5028125 -7.9609375 4.8728125 -7.9609375 1.1328125 C-5.23229577 -0.23150836 -3.05113473 0.00314226 0 0 Z " fill="#375BB2" transform="translate(93.9609375,87.8671875)"/>
<path d="M0 0 C0.94147888 -0.0159874 1.88295776 -0.03197479 2.85296631 -0.04844666 C3.87376282 -0.05380936 4.89455933 -0.05917206 5.94628906 -0.06469727 C6.99463928 -0.07372574 8.0429895 -0.08275421 9.12310791 -0.09205627 C11.34571466 -0.10658602 13.56836444 -0.11545224 15.79101562 -0.11914062 C19.18465936 -0.13100821 22.57646846 -0.18014456 25.96972656 -0.23071289 C28.12857185 -0.2401801 30.28742832 -0.24741371 32.44628906 -0.25219727 C33.45898865 -0.27172958 34.47168823 -0.2912619 35.51507568 -0.31138611 C40.08040479 -0.28230405 43.42578375 -0.24377016 47.09130859 2.66918945 C50.42107636 6.37342749 50.50167166 8.95223404 50.71582031 13.76733398 C50.46191406 16.30639648 50.46191406 16.30639648 48.52441406 18.99389648 C47.84378906 19.42702148 47.16316406 19.86014648 46.46191406 20.30639648 C45.80191406 19.97639648 45.14191406 19.64639648 44.46191406 19.30639648 C42.86743942 19.22239119 41.26950862 19.19912182 39.67285156 19.20874023 C38.26132813 19.21357422 38.26132813 19.21357422 36.82128906 19.21850586 C35.83644531 19.22688477 34.85160156 19.23526367 33.83691406 19.24389648 C32.84433594 19.2484082 31.85175781 19.25291992 30.82910156 19.25756836 C28.37331246 19.26937504 25.91764302 19.28584248 23.46191406 19.30639648 C23.46191406 18.97639648 23.46191406 18.64639648 23.46191406 18.30639648 C28.08191406 17.97639648 32.70191406 17.64639648 37.46191406 17.30639648 C37.46191406 15.32639648 37.46191406 13.34639648 37.46191406 11.30639648 C38.46191406 8.93139648 38.46191406 8.93139648 39.46191406 7.30639648 C40.12191406 7.30639648 40.78191406 7.30639648 41.46191406 7.30639648 C41.79191406 5.98639648 42.12191406 4.66639648 42.46191406 3.30639648 C18.20691406 2.81139648 18.20691406 2.81139648 -6.53808594 2.30639648 C-4.08164415 -0.1500453 -3.37906297 0.04330713 0 0 Z " fill="#2D56B6" transform="translate(77.5380859375,84.693603515625)"/>
<path d="M0 0 C2.42242222 1.25358584 3.92978642 2.32907644 5.6796875 4.38671875 C4.4628125 4.34546875 3.2459375 4.30421875 1.9921875 4.26171875 C-1.95130642 4.24939533 -5.6248763 4.71101172 -9.5078125 5.38671875 C-16.47383691 6.55595689 -23.27443524 6.57686236 -30.3203125 6.38671875 C-30.6503125 4.73671875 -30.9803125 3.08671875 -31.3203125 1.38671875 C-21.74892791 -6.63254942 -10.94378481 -4.45511044 0 0 Z " fill="#2E9CE2" transform="translate(48.3203125,76.61328125)"/>
<path d="M0 0 C2.125 2.25 2.125 2.25 2.4375 5 C2.334375 5.7425 2.23125 6.485 2.125 7.25 C0.13932292 6.92447917 -1.84635417 6.59895833 -3.83203125 6.2734375 C-6.19255824 6.05422152 -6.19255824 6.05422152 -8.875 8.25 C-9.45493699 10.44454681 -9.45493699 10.44454681 -9.5625 12.875 C-9.62824219 13.69226563 -9.69398437 14.50953125 -9.76171875 15.3515625 C-9.79910156 15.97804688 -9.83648437 16.60453125 -9.875 17.25 C-11.18852023 16.94181644 -12.50079572 16.62832335 -13.8125 16.3125 C-14.90884766 16.05146484 -14.90884766 16.05146484 -16.02734375 15.78515625 C-17.875 15.25 -17.875 15.25 -18.875 14.25 C-19.47205159 9.60082776 -19.2655439 6.07615055 -17.25 1.8125 C-12.13421901 -3.70715844 -6.25741313 -3.80886017 0 0 Z " fill="#1F75BE" transform="translate(84.875,26.75)"/>
<path d="M0 0 C1.75 2.0625 1.75 2.0625 3 4 C3.66 3.34 4.32 2.68 5 2 C5.99 2.99 6.98 3.98 8 5 C5.48168311 6.44206141 2.96052215 7.87871208 0.4375 9.3125 C-0.26697266 9.71662109 -0.97144531 10.12074219 -1.69726562 10.53710938 C-13.44988551 17.19873263 -13.44988551 17.19873263 -17.4375 16.6875 C-17.953125 16.460625 -18.46875 16.23375 -19 16 C-18.67645559 10.66151726 -15.72726977 7.52687892 -12 4 C-4.54749862 -1.83612392 -4.54749862 -1.83612392 0 0 Z " fill="#1662B5" transform="translate(19,89)"/>
<path d="M0 0 C-1.5402819 3.98661198 -4.05500402 5.9009683 -7.375 8.5 C-10.12489066 10.66433443 -12.73997246 12.72821715 -15.16015625 15.2578125 C-17 17 -17 17 -20.0625 17.375 C-21.031875 17.58125 -22.00125 17.7875 -23 18 C-24.93469849 20.95071844 -24.93469849 20.95071844 -26 24 C-26.66 24 -27.32 24 -28 24 C-28.54372951 20.94152152 -29 18.11227195 -29 15 C-27.68 15 -26.36 15 -25 15 C-24.99871094 14.09894531 -24.99742188 13.19789062 -24.99609375 12.26953125 C-23.88855284 8.63419107 -23.61746387 8.40404778 -20.47265625 6.69921875 C-19.01317803 6.00593346 -17.54242005 5.33600429 -16.0625 4.6875 C-15.32064453 4.34138672 -14.57878906 3.99527344 -13.81445312 3.63867188 C-12.44095285 2.9998635 -11.06313975 2.37019221 -9.67993164 1.75268555 C-6.17482838 0.18224035 -3.91081644 -0.08501775 0 0 Z " fill="#1C72C5" transform="translate(48,88)"/>
<path d="M0 0 C-1.12518059 7.20115575 -4.55726922 15.25245301 -10 20.25 C-13.33622286 22.19613 -15.20248092 22.4520856 -19 22 C-19.57122495 17.43020044 -19.2836595 14.82369007 -16.625 11 C-12.65283198 6.14618132 -6.53693971 0 0 0 Z " fill="#2489D6" transform="translate(55,88)"/>
<path d="M0 0 C1.21429688 -0.02578125 2.42859375 -0.0515625 3.6796875 -0.078125 C7.36441521 0.27280145 9.20316773 1.02897621 12.125 3.25 C13.64720138 6.29440276 13.51316176 9.47471986 13.74609375 12.83984375 C13.99277079 15.50530027 13.99277079 15.50530027 16.125 18.25 C15.96979131 21.35417382 15.52615522 22.80427198 13.4375 25.125 C10.26250771 26.66959084 8.45697451 26.2640792 5.125 25.25 C3.125 22.25 3.125 22.25 3.125 19.25 C1.76375 19.930625 1.76375 19.930625 0.375 20.625 C-2.04166667 21.83333333 -4.45833333 23.04166667 -6.875 24.25 C-6.875 22.27 -6.875 20.29 -6.875 18.25 C-7.535 17.92 -8.195 17.59 -8.875 17.25 C-7.555 17.25 -6.235 17.25 -4.875 17.25 C-4.545 18.24 -4.215 19.23 -3.875 20.25 C-2.885 19.92 -1.895 19.59 -0.875 19.25 C-0.875 18.59 -0.875 17.93 -0.875 17.25 C0.5790625 16.7859375 0.5790625 16.7859375 2.0625 16.3125 C4.96565792 15.55476658 4.96565792 15.55476658 6.125 14.25 C7.79117115 14.20936168 9.45888095 14.207279 11.125 14.25 C11.06499894 12.6239713 10.9762115 10.99898451 10.875 9.375 C10.82859375 8.47007813 10.7821875 7.56515625 10.734375 6.6328125 C10.36136741 4.15794678 10.36136741 4.15794678 8.4453125 2.94921875 C2.84439066 1.26139887 -4.32070441 1.0724728 -9.625 3.75 C-10.73875 4.4925 -10.73875 4.4925 -11.875 5.25 C-11.0625 3.3125 -11.0625 3.3125 -9.875 1.25 C-6.42834258 0.10111419 -3.63148095 0.0460653 0 0 Z " fill="#204E9B" transform="translate(105.875,8.75)"/>
<path d="M0 0 C2 1 2 1 2.73022461 2.6706543 C2.95202393 3.38133057 3.17382324 4.09200684 3.40234375 4.82421875 C3.65306641 5.60603516 3.90378906 6.38785156 4.16210938 7.19335938 C4.41798828 8.01642578 4.67386719 8.83949219 4.9375 9.6875 C6.61897931 15.05017185 8.41979517 19.98593032 11 25 C11 25.66 11 26.32 11 27 C9.02 27.66 7.04 28.32 5 29 C5 32.79557881 5.50178941 34.62902617 7 38 C5.68 37.34 4.36 36.68 3 36 C3 35.34 3 34.68 3 34 C2.01 34 1.02 34 0 34 C-0.04254356 32.00045254 -0.04080783 29.99958364 0 28 C0.33 27.67 0.66 27.34 1 27 C0.690625 25.783125 0.38125 24.56625 0.0625 23.3125 C-1.67598623 16.0061592 -2.23868122 7.25332715 0 0 Z " fill="#33B4E0" transform="translate(26,0)"/>
<path d="M0 0 C5.74760404 8.62140605 9.30963626 23.55794 7.5078125 33.796875 C7.34023438 34.52390625 7.17265625 35.2509375 7 36 C3.83884224 34.63016497 3.0072908 34.0109362 1 31 C1.020625 29.88625 1.04125 28.7725 1.0625 27.625 C1.32092661 24.05235496 1.32092661 24.05235496 -0.484375 21.7109375 C-2.40155913 18.28174733 -2.36722444 15.90648281 -2.3125 12 C-2.30863281 10.80375 -2.30476563 9.6075 -2.30078125 8.375 C-2.01433439 5.16084307 -1.37603259 2.89460241 0 0 Z M1 20 C1.33 20.99 1.66 21.98 2 23 C2.33 22.01 2.66 21.02 3 20 C2.34 20 1.68 20 1 20 Z " fill="#3BC8FA" transform="translate(39,2)"/>
<path d="M0 0 C2.74612915 3.66150553 3.41474685 4.74700644 4.125 8.9375 C4.34542969 10.18853516 4.34542969 10.18853516 4.5703125 11.46484375 C4.71210937 12.30144531 4.85390625 13.13804688 5 14 C5.22429688 14.88816406 5.44859375 15.77632812 5.6796875 16.69140625 C5.78539062 17.45324219 5.89109375 18.21507813 6 19 C5.34 19.66 4.68 20.32 4 21 C3.34 20.34 2.68 19.68 2 19 C1.855625 19.78375 1.71125 20.5675 1.5625 21.375 C1 24 1 24 0 26 C-0.66 26 -1.32 26 -2 26 C-3.01111093 29.04913228 -3.01111093 29.04913228 -2 32 C-4.64 31.67 -7.28 31.34 -10 31 C-10 30.01 -10 29.02 -10 28 C-9.34 28 -8.68 28 -8 28 C-8.20625 27.21625 -8.4125 26.4325 -8.625 25.625 C-8.74875 24.75875 -8.8725 23.8925 -9 23 C-8.34 22.34 -7.68 21.68 -7 21 C-5.68 21.66 -4.36 22.32 -3 23 C-3.37125 22.0925 -3.7425 21.185 -4.125 20.25 C-5 17 -5 17 -4.125 14.625 C-3.75375 14.08875 -3.3825 13.5525 -3 13 C-2.01 13.33 -1.02 13.66 0 14 C0 9.38 0 4.76 0 0 Z " fill="#2EA6E3" transform="translate(46,24)"/>
<path d="M0 0 C1.4606285 2.64738916 2 3.89448334 2 7 C2.99 7.66 3.98 8.32 5 9 C5.99 10.485 5.99 10.485 7 12 C-1.52197802 19.35989011 -1.52197802 19.35989011 -8 19 C-8.80775534 11.59557608 -6.59175214 7.73374231 -2 2 C-1.34 1.34 -0.68 0.68 0 0 Z " fill="#0A3DA9" transform="translate(9,108)"/>
<path d="M0 0 C0.94470657 -0.0127597 1.88941315 -0.02551941 2.86274719 -0.03866577 C3.88668076 -0.04089142 4.91061432 -0.04311707 5.96557617 -0.04541016 C7.54165901 -0.05539536 7.54165901 -0.05539536 9.14958191 -0.06558228 C11.37639614 -0.07572232 13.60324083 -0.08039888 15.83007812 -0.08007812 C19.23448018 -0.08444181 22.63757638 -0.12072208 26.04174805 -0.15869141 C28.20385298 -0.16456117 30.36596409 -0.16852949 32.52807617 -0.17041016 C33.54593704 -0.18478119 34.56379791 -0.19915222 35.61250305 -0.21395874 C40.06092323 -0.18527152 42.71037761 -0.14540255 46.59790039 2.15820312 C48.89850366 4.81255833 48.98624594 6.07947181 48.75854492 9.54052734 C48.71342773 10.43255859 48.66831055 11.32458984 48.62182617 12.24365234 C48.53481445 13.25685547 48.53481445 13.25685547 48.44604492 14.29052734 C47.78604492 14.62052734 47.12604492 14.95052734 46.44604492 15.29052734 C46.32487305 14.67564453 46.20370117 14.06076172 46.07885742 13.42724609 C45.82749023 12.21488281 45.82749023 12.21488281 45.57104492 10.97802734 C45.40862305 10.17751953 45.24620117 9.37701172 45.07885742 8.55224609 C44.50125493 6.03751616 44.50125493 6.03751616 42.44604492 3.29052734 C40.2718945 2.81479917 40.2718945 2.81479917 37.72094727 2.8581543 C36.24964859 2.82846306 36.24964859 2.82846306 34.74862671 2.798172 C33.68713409 2.79178207 32.62564148 2.78539215 31.53198242 2.77880859 C30.44720612 2.76085739 29.36242981 2.74290619 28.24478149 2.72441101 C24.77024253 2.67010425 21.2958425 2.63634666 17.82104492 2.60302734 C15.469463 2.5698723 13.11789946 2.53538436 10.76635742 2.49951172 C4.99304451 2.41436628 -0.78028594 2.34610302 -6.55395508 2.29052734 C-4.0920534 -0.17137434 -3.38725295 0.03099289 0 0 Z " fill="#1F418E" transform="translate(77.553955078125,84.70947265625)"/>
<path d="M0 0 C2.41674224 -0.02705308 4.8331794 -0.04686438 7.25 -0.0625 C7.93191406 -0.07087891 8.61382812 -0.07925781 9.31640625 -0.08789062 C12.69342554 -0.10428392 15.77291639 -0.05628768 19 1 C19 1.99 19 2.98 19 4 C18.34 4 17.68 4 17 4 C16.34 6.64 15.68 9.28 15 12 C14.34 12 13.68 12 13 12 C12.319375 10.2984375 12.319375 10.2984375 11.625 8.5625 C10.42904194 4.95278308 10.42904194 4.95278308 8 4 C8.33 6.64 8.66 9.28 9 12 C7.02 12 5.04 12 3 12 C2.92652344 10.82630859 2.92652344 10.82630859 2.8515625 9.62890625 C2.77679688 8.61699219 2.70203125 7.60507813 2.625 6.5625 C2.55539063 5.55316406 2.48578125 4.54382813 2.4140625 3.50390625 C2.27742188 2.67761719 2.14078125 1.85132812 2 1 C1.34 0.67 0.68 0.34 0 0 Z " fill="#2F58B8" transform="translate(100,88)"/>
<path d="M0 0 C0 3 0 3 -1 5 C0.32 4.34 1.64 3.68 3 3 C2.67 4.32 2.34 5.64 2 7 C0.02 7 -1.96 7 -4 7 C-4.12375 7.804375 -4.2475 8.60875 -4.375 9.4375 C-4.684375 10.7059375 -4.684375 10.7059375 -5 12 C-7.8194068 13.4097034 -10.23267226 13.16984647 -13.375 13.1875 C-14.51710938 13.20167969 -15.65921875 13.21585938 -16.8359375 13.23046875 C-19.83936816 13.01170034 -21.47925934 12.57080637 -24 11 C-23.01 10.67 -22.02 10.34 -21 10 C-20.67 9.34 -20.34 8.68 -20 8 C-19.01 8.33 -18.02 8.66 -17 9 C-16.67 8.01 -16.34 7.02 -16 6 C-15.34 6 -14.68 6 -14 6 C-14.33 7.32 -14.66 8.64 -15 10 C-14.34 10 -13.68 10 -13 10 C-13 8.68 -13 7.36 -13 6 C-12.4225 6.20625 -11.845 6.4125 -11.25 6.625 C-8.48032433 7.08661261 -7.35438733 6.42944945 -5 5 C-5.33 3.68 -5.66 2.36 -6 1 C-5.01 1.33 -4.02 1.66 -3 2 C-2.01 1.34 -1.02 0.68 0 0 Z " fill="#1050B8" transform="translate(69,56)"/>
<path d="M0 0 C3.41027555 1.70513777 4.45079519 5.55932821 6.0625 8.875 C6.42666016 9.60847656 6.79082031 10.34195312 7.16601562 11.09765625 C8.62231279 14.05332037 9.95598559 16.86795677 11 20 C10.01 20.33 9.02 20.66 8 21 C8 21.99 8 22.98 8 24 C7.01 23.67 6.02 23.34 5 23 C4.67 23.66 4.34 24.32 4 25 C0.91254926 16.45437743 -0.58974578 9.09191414 0 0 Z " fill="#32B4E1" transform="translate(15,8)"/>
<path d="M0 0 C0.99 0.33 1.98 0.66 3 1 C3 2.98 3 4.96 3 7 C3.99 7 4.98 7 6 7 C10 11.22857143 10 11.22857143 10 15 C7.08291076 16.98362069 5.87619096 16.9876191 2.25 16.625 C0.64125 16.315625 0.64125 16.315625 -1 16 C-0.34 15.67 0.32 15.34 1 15 C0.34 13.9275 -0.32 12.855 -1 11.75 C-2.88295807 8.69019314 -3 7.8664136 -3 4 C-2.01 3.67 -1.02 3.34 0 3 C0 2.01 0 1.02 0 0 Z " fill="#3AC2F7" transform="translate(23,27)"/>
<path d="M0 0 C0 1.32 0 2.64 0 4 C1.32 4.66 2.64 5.32 4 6 C3.34 6 2.68 6 2 6 C2.33 6.99 2.66 7.98 3 9 C-1.62 9 -6.24 9 -11 9 C-11.33 7.35 -11.66 5.7 -12 4 C-5.27272727 -1.63636364 -5.27272727 -1.63636364 0 0 Z " fill="#2B8DDA" transform="translate(29,74)"/>
<path d="M0 0 C-3.24284779 2.16189853 -4.10096221 2.24626755 -7.83862305 2.22705078 C-9.30980843 2.22682419 -9.30980843 2.22682419 -10.81071472 2.22659302 C-11.86704605 2.21627045 -12.92337738 2.20594788 -14.01171875 2.1953125 C-15.09508011 2.1924826 -16.17844147 2.18965271 -17.29463196 2.18673706 C-20.75903308 2.17553091 -24.22317685 2.15042534 -27.6875 2.125 C-30.03450148 2.11497077 -32.381507 2.10584482 -34.72851562 2.09765625 C-40.48576507 2.07559016 -46.24286415 2.04210827 -52 2 C-50.35550887 0.00252147 -49.44797337 -0.91337606 -46.86839294 -1.41218567 C-46.04613724 -1.42932114 -45.22388153 -1.4464566 -44.37670898 -1.46411133 C-43.44241562 -1.49036087 -42.50812225 -1.51661041 -41.54551697 -1.5436554 C-40.03605247 -1.56265144 -40.03605247 -1.56265144 -38.49609375 -1.58203125 C-36.94475487 -1.61607307 -36.94475487 -1.61607307 -35.36207581 -1.65080261 C-33.17584259 -1.69540026 -30.98945142 -1.73275448 -28.80297852 -1.76342773 C-25.4467814 -1.81236467 -22.09193872 -1.88783265 -18.73632812 -1.96679688 C-16.61461253 -2.00678845 -14.49286746 -2.04525195 -12.37109375 -2.08203125 C-11.36275986 -2.10481644 -10.35442596 -2.12760162 -9.3155365 -2.15107727 C-8.38439529 -2.16156601 -7.45325409 -2.17205475 -6.49389648 -2.18286133 C-5.26170631 -2.20259758 -5.26170631 -2.20259758 -4.00462341 -2.22273254 C-2 -2 -2 -2 0 0 Z " fill="#22428E" transform="translate(124,105)"/>
<path d="M0 0 C3.41008054 1.13669351 4.04378221 1.99396636 6.125 4.8125 C6.64320312 5.49957031 7.16140625 6.18664063 7.6953125 6.89453125 C8.98483238 8.97552291 9.49589036 10.62862709 10 13 C10.33 13.33 10.66 13.66 11 14 C11.04063832 15.66617115 11.042721 17.33388095 11 19 C10.01 19.33 9.02 19.66 8 20 C8 19.34 8 18.68 8 18 C7.01 18 6.02 18 5 18 C1.90787824 11.91643021 0.43300764 6.81987029 0 0 Z " fill="#2FA7D9" transform="translate(15,31)"/>
<path d="M0 0 C0.99 0 1.98 0 3 0 C2.67 0.99 2.34 1.98 2 3 C1.75252999 7.45446012 1.664661 11.10776834 4 15 C8.68065683 17.64789116 13.66748949 17.34805803 18.89453125 17.4140625 C19.84188644 17.43342865 20.78924164 17.4527948 21.76530457 17.4727478 C24.78094577 17.53236371 27.79662552 17.57885705 30.8125 17.625 C32.86134446 17.66319633 34.91017314 17.70224902 36.95898438 17.7421875 C41.97252762 17.83805053 46.98614603 17.92214807 52 18 C52 18.33 52 18.66 52 19 C45.25581973 19.12686439 38.51194756 19.21437811 31.7668457 19.2746582 C29.47278342 19.29978928 27.1788011 19.33389969 24.88500977 19.37719727 C21.58589951 19.43790832 18.28784854 19.46622437 14.98828125 19.48828125 C13.45207878 19.52699089 13.45207878 19.52699089 11.88484192 19.56648254 C4.76721656 19.56928075 4.76721656 19.56928075 0.84594727 16.65966797 C-1.39298657 13.43377916 -1.55858677 11.70164078 -1.375 7.8125 C-1.34148437 6.76707031 -1.30796875 5.72164063 -1.2734375 4.64453125 C-1 2 -1 2 0 0 Z " fill="#3966C1" transform="translate(66,87)"/>
<path d="M0 0 C0.33 0 0.66 0 1 0 C1.34954027 6.43413022 1.33119494 11.37142924 -2 17 C-4.6875 18.9375 -4.6875 18.9375 -7 20 C-7 19.01 -7 18.02 -7 17 C-8.32 16.67 -9.64 16.34 -11 16 C-10.34 15.67 -9.68 15.34 -9 15 C-9 12.03 -9 9.06 -9 6 C-6.69 6.33 -4.38 6.66 -2 7 C-2 7.66 -2 8.32 -2 9 C-1.34 9 -0.68 9 0 9 C0 6.03 0 3.06 0 0 Z " fill="#104AA1" transform="translate(75,35)"/>
<path d="M0 0 C1.9375 1.25 1.9375 1.25 3 3 C3.04240144 4.66612721 3.04627845 6.33397597 3 8 C1.08210287 7.71653722 -0.83429183 7.4228972 -2.75 7.125 C-3.81734375 6.96257813 -4.8846875 6.80015625 -5.984375 6.6328125 C-8.67708871 6.06776118 -10.63572439 5.36577086 -13 4 C-12 1 -12 1 -9.875 -0.25 C-6.21209689 -1.20553994 -3.66580922 -0.88250963 0 0 Z " fill="#2D9BE2" transform="translate(84,26)"/>
<path d="M0 0 C2.85790603 2.94721559 3.97564254 4.31799121 4.125 8.5 C4.08375 9.655 4.0425 10.81 4 12 C4.6469365 13.6744239 5.30959426 15.34302621 6 17 C5.67 17.99 5.34 18.98 5 20 C4.34 20 3.68 20 3 20 C3 20.99 3 21.98 3 23 C1.68 22.34 0.36 21.68 -1 21 C-0.67 18.69 -0.34 16.38 0 14 C-0.99 13.67 -1.98 13.34 -3 13 C-2.505 12.154375 -2.01 11.30875 -1.5 10.4375 C0.14747708 6.66203168 0.24430947 4.07182452 0 0 Z M3 1 C3.99 1.495 3.99 1.495 5 2 C4.34 2.66 3.68 3.32 3 4 C3 3.01 3 2.02 3 1 Z " fill="#35BAF3" transform="translate(37,21)"/>
<path d="M0 0 C0.99 0.66 1.98 1.32 3 2 C2.34 2 1.68 2 1 2 C0.8453125 2.928125 0.8453125 2.928125 0.6875 3.875 C0 6 0 6 -3 8 C-4.66821323 7.67449498 -6.33499557 7.34153937 -8 7 C-8.66 7.66 -9.32 8.32 -10 9 C-14 4.25 -14 4.25 -14 2 C-12.56274129 1.83126522 -11.12518162 1.66509263 -9.6875 1.5 C-8.88699219 1.4071875 -8.08648437 1.314375 -7.26171875 1.21875 C-5 1 -5 1 -2 1 C-1.34 0.67 -0.68 0.34 0 0 Z " fill="#1D73C4" transform="translate(32,85)"/>
<path d="M0 0 C0.103125 0.639375 0.20625 1.27875 0.3125 1.9375 C0.539375 2.618125 0.76625 3.29875 1 4 C1.99 4.33 2.98 4.66 4 5 C4 5.66 4 6.32 4 7 C3.67 7.33 3.34 7.66 3 8 C3.33 8.66 3.66 9.32 4 10 C-2.4 13.07692308 -2.4 13.07692308 -5.4375 12.6875 C-5.953125 12.460625 -6.46875 12.23375 -7 12 C-6.67566492 6.64847115 -3.50295176 3.71719957 0 0 Z " fill="#0D47A7" transform="translate(7,93)"/>
<path d="M0 0 C-1.97728056 4.47079693 -4.86259318 7.41412074 -9 10 C-11.95558955 9.93432023 -13.40086276 9.29956862 -16 8 C-16.33 8.66 -16.66 9.32 -17 10 C-17 9.01 -17 8.02 -17 7 C-15.36368108 5.95107762 -13.69514137 4.95093297 -12 4 C-11.67 3.34 -11.34 2.68 -11 2 C-7.24079436 0.06669424 -4.19075475 -0.19491883 0 0 Z " fill="#217EBA" transform="translate(48,88)"/>
<path d="M0 0 C6.74425389 -0.10149262 13.48831055 -0.17150433 20.2331543 -0.21972656 C22.52717448 -0.23983106 24.82114348 -0.26711891 27.11499023 -0.30175781 C30.41402826 -0.35032559 33.71238822 -0.37298077 37.01171875 -0.390625 C38.03585373 -0.41127014 39.05998871 -0.43191528 40.11515808 -0.45318604 C47.25088156 -0.45543029 47.25088156 -0.45543029 51.12426758 1.89941406 C54.12280372 5.25739987 54.11392242 7.20267153 54.0625 11.625 C54.05347656 12.62789062 54.04445312 13.63078125 54.03515625 14.6640625 C54.02355469 15.43492188 54.01195312 16.20578125 54 17 C53.67 17 53.34 17 53 17 C52.98582031 16.32453125 52.97164062 15.6490625 52.95703125 14.953125 C52.75485222 9.11675597 52.75485222 9.11675597 49.5625 4.4375 C46.23309624 2.5697857 44.43307815 1.8688032 40.64208984 1.79467773 C39.29091568 1.7647599 39.29091568 1.7647599 37.91244507 1.73423767 C36.93844757 1.71752518 35.96445007 1.70081268 34.9609375 1.68359375 C33.96494537 1.66281265 32.96895325 1.64203156 31.94277954 1.62062073 C28.75359146 1.55510958 25.56431942 1.49623296 22.375 1.4375 C20.21613707 1.39431627 18.0572827 1.35070203 15.8984375 1.30664062 C10.5990477 1.19942664 5.29957394 1.09766315 0 1 C0 0.67 0 0.34 0 0 Z " fill="#4C7FD9" transform="translate(74,83)"/>
<path d="M0 0 C2.5 0.25 2.5 0.25 4.5 2.25 C4.625 5.875 4.625 5.875 4.5 9.25 C-1.65234375 9.34765625 -1.65234375 9.34765625 -3.5 9.25 C-4.5 8.25 -4.5 8.25 -4.6875 5.3125 C-4.45388199 1.49673913 -3.88335294 0.38833529 0 0 Z " fill="#26A2E6" transform="translate(115.5,23.75)"/>
<path d="M0 0 C0.33 0 0.66 0 1 0 C1 2.97 1 5.94 1 9 C1.99 9 2.98 9 4 9 C4.33 8.01 4.66 7.02 5 6 C5.33 6.99 5.66 7.98 6 9 C7.32 9 8.64 9 10 9 C10 6.03 10 3.06 10 0 C10.33 0 10.66 0 11 0 C11 2.97 11 5.94 11 9 C13.31 9 15.62 9 18 9 C18 6.03 18 3.06 18 0 C18.33 0 18.66 0 19 0 C19 2.97 19 5.94 19 9 C19.66 9 20.32 9 21 9 C21 9.66 21 10.32 21 11 C17.87501937 11.02895976 14.7500731 11.04678483 11.625 11.0625 C10.73554687 11.07087891 9.84609375 11.07925781 8.9296875 11.08789062 C7.65351562 11.09272461 7.65351562 11.09272461 6.3515625 11.09765625 C5.17327881 11.10551147 5.17327881 11.10551147 3.97119141 11.11352539 C2 11 2 11 0 10 C0 6.7 0 3.4 0 0 Z " fill="#26458F" transform="translate(75,91)"/>
<path d="M0 0 C0.93423645 3.01031744 1.04449911 3.86650268 0 7 C-0.99 7.495 -0.99 7.495 -2 8 C-3.0013988 11.00419641 -3.51421457 13.87709365 -4 17 C-5.32 16.34 -6.64 15.68 -8 15 C-8.11928251 6.22421525 -8.11928251 6.22421525 -5.375 3.22265625 C-3.4375 1.875 -3.4375 1.875 0 0 Z " fill="#155CB7" transform="translate(23,97)"/>
<path d="M0 0 C2 1 2 1 3.125 4.1875 C3.92227281 7.66133154 4.16075449 10.46340119 4 14 C4 14.99 4 15.98 4 17 C3.67 17.99 3.34 18.98 3 20 C0.05167671 17.56442859 -0.5808494 15.77235538 -1 12 C-1.18738596 7.91009767 -1.31011071 3.93033212 0 0 Z " fill="#3CCBFC" transform="translate(26,0)"/>
<path d="M0 0 C0.33 0.66 0.66 1.32 1 2 C2.65 1.67 4.3 1.34 6 1 C6 4.10551666 5.4606285 5.35261084 4 8 C4.99 8.33 5.98 8.66 7 9 C6.67 11.31 6.34 13.62 6 16 C3.03925765 13.24344678 0.64490798 10.72268649 -1 7 C-0.6875 3.1875 -0.6875 3.1875 0 0 Z " fill="#3DC7FA" transform="translate(31,26)"/>
<path d="M0 0 C1.98 0 3.96 0 6 0 C6.66 1.65 7.32 3.3 8 5 C7.01 4.67 6.02 4.34 5 4 C4.67 5.32 4.34 6.64 4 8 C3.34 8 2.68 8 2 8 C2 7.01 2 6.02 2 5 C1.34 5 0.68 5 0 5 C0.33 6.65 0.66 8.3 1 10 C0.01 10.33 -0.98 10.66 -2 11 C-2.99 10.34 -3.98 9.68 -5 9 C-3.25 4.125 -3.25 4.125 -1 3 C-0.67 2.01 -0.34 1.02 0 0 Z " fill="#207CD2" transform="translate(52,50)"/>
<path d="M0 0 C1.98 0 3.96 0 6 0 C6.77842938 3.40562852 7.09978121 6.50765756 7 10 C6.01 10 5.02 10 4 10 C3.67 9.34 3.34 8.68 3 8 C2.67 8.66 2.34 9.32 2 10 C1.34 10 0.68 10 0 10 C0 6.7 0 3.4 0 0 Z " fill="#B3B9C8" transform="translate(77,90)"/>
<path d="M0 0 C1.15941038 3.47823115 0.70820884 5.45895578 0 9 C0.66 9 1.32 9 2 9 C3.6875 10.8125 3.6875 10.8125 5 13 C4.67 13.99 4.34 14.98 4 16 C-1.875 15.125 -1.875 15.125 -3 14 C-3.58285311 8.57498256 -3.44991232 4.45613675 0 0 Z " fill="#155FBD" transform="translate(69,27)"/>
<path d="M0 0 C0.33 0 0.66 0 1 0 C1 2.97 1 5.94 1 9 C7.93 9.33 14.86 9.66 22 10 C22.33 8.68 22.66 7.36 23 6 C23.99 6 24.98 6 26 6 C26 7.32 26 8.64 26 10 C26.66 10.33 27.32 10.66 28 11 C27 12 27 12 24.515625 12.03759766 C23.43796875 11.99683105 22.3603125 11.95606445 21.25 11.9140625 C20.0846875 11.87023437 18.919375 11.82640625 17.71875 11.78125 C16.4915625 11.7296875 15.264375 11.678125 14 11.625 C12.7728125 11.58117187 11.545625 11.53734375 10.28125 11.4921875 C1.12766417 11.12766417 1.12766417 11.12766417 0 10 C-0.07205511 8.31391034 -0.08386068 6.62499341 -0.0625 4.9375 C-0.05347656 4.01839844 -0.04445313 3.09929687 -0.03515625 2.15234375 C-0.02355469 1.44207031 -0.01195313 0.73179688 0 0 Z " fill="#274DAA" transform="translate(74,92)"/>
<path d="M0 0 C2.875 -0.125 2.875 -0.125 6 0 C6.66 0.66 7.32 1.32 8 2 C7.625 4.125 7.625 4.125 7 6 C5.68 6 4.36 6 3 6 C3 7.32 3 8.64 3 10 C2.01 10 1.02 10 0 10 C0 6.7 0 3.4 0 0 Z " fill="#ACB3C6" transform="translate(94,90)"/>
<path d="M0 0 C1.32 1.32 2.64 2.64 4 4 C3.34 5.65 2.68 7.3 2 9 C1.236875 8.814375 0.47375 8.62875 -0.3125 8.4375 C-3.08967375 7.77180827 -3.08967375 7.77180827 -6 9 C-6.99 8.34 -7.98 7.68 -9 7 C-6.69 6.01 -4.38 5.02 -2 4 C-5.3 3.67 -8.6 3.34 -12 3 C-12 2.67 -12 2.34 -12 2 C-11.21753906 1.93941406 -10.43507812 1.87882812 -9.62890625 1.81640625 C-8.61699219 1.73261719 -7.60507812 1.64882812 -6.5625 1.5625 C-5.55316406 1.48128906 -4.54382812 1.40007812 -3.50390625 1.31640625 C-1.06359221 1.26788532 -1.06359221 1.26788532 0 0 Z " fill="#1D6E96" transform="translate(54,80)"/>
<path d="M0 0 C2.475 0.495 2.475 0.495 5 1 C5 1.99 5 2.98 5 4 C5.99 4.33 6.98 4.66 8 5 C8.33 5.99 8.66 6.98 9 8 C6 8 6 8 4.39453125 6.50390625 C3.61142578 5.54291016 3.61142578 5.54291016 2.8125 4.5625 C2.28269531 3.92441406 1.75289062 3.28632812 1.20703125 2.62890625 C0 1 0 1 0 0 Z M9 2 C10.67542976 2.28604898 12.34385343 2.61781233 14 3 C13 5 13 5 12 6 C13.65 6.99 15.3 7.98 17 9 C16.34 9.66 15.68 10.32 15 11 C15 10.34 15 9.68 15 9 C14.030625 8.7525 13.06125 8.505 12.0625 8.25 C9 7 9 7 8.0625 4.9375 C8.041875 4.298125 8.02125 3.65875 8 3 C8.33 2.67 8.66 2.34 9 2 Z " fill="#2B98D9" transform="translate(21,49)"/>
<path d="M0 0 C2.475 0.99 2.475 0.99 5 2 C3.8899159 4.92658536 3.3190652 5.84435844 0.4375 7.25 C-2.1420285 8.71644982 -2.1420285 8.71644982 -2.546875 10.96484375 C-2.78626454 12.96797095 -2.90090431 14.98505435 -3 17 C-3.33 17 -3.66 17 -4 17 C-6.42857143 8.57142857 -6.42857143 8.57142857 -5 4 C-4.67 4.99 -4.34 5.98 -4 7 C-3.34 7 -2.68 7 -2 7 C-2 6.01 -2 5.02 -2 4 C-1.34 4 -0.68 4 0 4 C0 2.68 0 1.36 0 0 Z " fill="#083392" transform="translate(90,34)"/>
<path d="M0 0 C0.66 0 1.32 0 2 0 C2.12375 0.639375 2.2475 1.27875 2.375 1.9375 C2.684375 2.9584375 2.684375 2.9584375 3 4 C3.66 4.33 4.32 4.66 5 5 C4.34 5 3.68 5 3 5 C3.95865509 7.33075929 3.95865509 7.33075929 7 9 C4.42786866 10.61949011 3.32330841 11.04408751 0.25 10.625 C-0.86375 10.315625 -0.86375 10.315625 -2 10 C-1.67 9.34 -1.34 8.68 -1 8 C-0.34 8.33 0.32 8.66 1 9 C0.484375 8.608125 -0.03125 8.21625 -0.5625 7.8125 C-2 6 -2 6 -1.75 3.375 C-1 1 -1 1 0 0 Z " fill="#1253B1" transform="translate(10,91)"/>
<path d="M0 0 C10.88028169 2.97887324 10.88028169 2.97887324 15 6 C15 6.33 15 6.66 15 7 C10.38 7 5.76 7 1 7 C1.99 5.35 2.98 3.7 4 2 C2.68 2.33 1.36 2.66 0 3 C0 2.01 0 1.02 0 0 Z " fill="#258CBE" transform="translate(39,74)"/>
<path d="M0 0 C7.25 7.25 7.25 7.25 9 13 C6.69 12.67 4.38 12.34 2 12 C1.67 11.01 1.34 10.02 1 9 C1.66 9 2.32 9 3 9 C2.319375 8.443125 1.63875 7.88625 0.9375 7.3125 C0.298125 6.549375 -0.34125 5.78625 -1 5 C-0.75 2.25 -0.75 2.25 0 0 Z " fill="#196EC6" transform="translate(57,42)"/>
<path d="M0 0 C3.465 1.485 3.465 1.485 7 3 C6.649375 3.94875 6.29875 4.8975 5.9375 5.875 C4.64973223 8.87060172 4.64973223 8.87060172 6 11 C3.36 10.67 0.72 10.34 -2 10 C-2 9.01 -2 8.02 -2 7 C-1.34 7 -0.68 7 0 7 C-0.2784375 5.824375 -0.2784375 5.824375 -0.5625 4.625 C-1 2 -1 2 0 0 Z " fill="#299AE2" transform="translate(38,45)"/>
<path d="M0 0 C1.98 0 3.96 0 6 0 C6 0.66 6 1.32 6 2 C5.01 2 4.02 2 3 2 C3 2.66 3 3.32 3 4 C3.99 4 4.98 4 6 4 C6 4.66 6 5.32 6 6 C5.01 6 4.02 6 3 6 C3 6.66 3 7.32 3 8 C3.99 8 4.98 8 6 8 C6 8.66 6 9.32 6 10 C4.02 10 2.04 10 0 10 C0 6.7 0 3.4 0 0 Z " fill="#C8CBD2" transform="translate(86,90)"/>
<path d="M0 0 C-0.65419099 5.06998019 -2.8546409 9.41990777 -5 14 C-6.5 12.625 -6.5 12.625 -8 11 C-8 10.34 -8 9.68 -8 9 C-7.01 8.34 -6.02 7.68 -5 7 C-5.33 6.34 -5.66 5.68 -6 5 C-6.99 4.67 -7.98 4.34 -9 4 C-3.375 0 -3.375 0 0 0 Z " fill="#2387BF" transform="translate(55,88)"/>
<path d="M0 0 C-0.804375 0.226875 -1.60875 0.45375 -2.4375 0.6875 C-3.283125 1.120625 -4.12875 1.55375 -5 2 C-5.165 2.825 -5.33 3.65 -5.5 4.5 C-5.665 5.325 -5.83 6.15 -6 7 C-8.5625 8.3125 -8.5625 8.3125 -11 9 C-11.33 7.35 -11.66 5.7 -12 4 C-5.27272727 -1.63636364 -5.27272727 -1.63636364 0 0 Z " fill="#1A72B8" transform="translate(29,74)"/>
<path d="M0 0 C2.29874686 1.72406015 3.80406685 3.0636656 4.40625 5.94140625 C4.5 8.0625 4.5 8.0625 4 12 C2 14 2 14 0 15 C-0.66 14.67 -1.32 14.34 -2 14 C-1.43697449 11.56022281 -0.74517329 9.25050967 0.0625 6.875 C1.1033402 4.18708882 1.1033402 4.18708882 1 2 C0.34 1.67 -0.32 1.34 -1 1 C-0.67 0.67 -0.34 0.34 0 0 Z " fill="#1042AF" transform="translate(83,47)"/>
<path d="M0 0 C1.32 0.66 2.64 1.32 4 2 C4 2.66 4 3.32 4 4 C3.01 4.33 2.02 4.66 1 5 C-0.70855022 8.00007271 -0.70855022 8.00007271 -2 11 C-2.66 11 -3.32 11 -4 11 C-4.54372951 7.94152152 -5 5.11227195 -5 2 C-3.68 2 -2.36 2 -1 2 C-0.67 1.34 -0.34 0.68 0 0 Z " fill="#1762C4" transform="translate(24,101)"/>
<path d="M0 0 C2.56616632 3.84924948 2.55097676 6.4349304 3 11 C1.35 11 -0.3 11 -2 11 C-1.85957123 9.35369672 -1.71250671 7.70795821 -1.5625 6.0625 C-1.48128906 5.14597656 -1.40007813 4.22945313 -1.31640625 3.28515625 C-1 1 -1 1 0 0 Z " fill="#30A7D0" transform="translate(39,2)"/>
<path d="M0 0 C0.99 0.99 1.98 1.98 3 3 C-4.28571429 7.57142857 -4.28571429 7.57142857 -9 7 C-9 5.02 -9 3.04 -9 1 C-8.01 1.99 -7.02 2.98 -6 4 C-3.53199953 2.84826645 -1.95216435 1.95216435 0 0 Z " fill="#0637A1" transform="translate(10,120)"/>
<path d="M0 0 C0.66 0.33 1.32 0.66 2 1 C1.34 1.66 0.68 2.32 0 3 C0.061875 4.175625 0.061875 4.175625 0.125 5.375 C0 8 0 8 -2 10.3125 C-2.66 10.869375 -3.32 11.42625 -4 12 C-4.66 10.68 -5.32 9.36 -6 8 C-4.02 5.36 -2.04 2.72 0 0 Z " fill="#1D74BC" transform="translate(42,95)"/>
<path d="M0 0 C0.99 0.33 1.98 0.66 3 1 C3 1.66 3 2.32 3 3 C3.66 3 4.32 3 5 3 C5 2.01 5 1.02 5 0 C5.99 0 6.98 0 8 0 C7.01 3.3 6.02 6.6 5 10 C4.34 10 3.68 10 3 10 C0 3.375 0 3.375 0 0 Z " fill="#CACED6" transform="translate(110,90)"/>
<path d="M0 0 C4.875 2.875 4.875 2.875 6 4 C6.04063832 5.66617115 6.042721 7.33388095 6 9 C3.03 8.505 3.03 8.505 0 8 C-0.33 7.01 -0.66 6.02 -1 5 C-0.34 5 0.32 5 1 5 C0.67 3.35 0.34 1.7 0 0 Z " fill="#2891CE" transform="translate(81,25)"/>
<path d="M0 0 C1.2065625 0.0309375 1.2065625 0.0309375 2.4375 0.0625 C2.4375 1.7125 2.4375 3.3625 2.4375 5.0625 C-0.5625 6.0625 -0.5625 6.0625 -2.60546875 5.28515625 C-3.31316406 4.90230469 -4.02085938 4.51945312 -4.75 4.125 C-5.46542969 3.74472656 -6.18085937 3.36445312 -6.91796875 2.97265625 C-7.46066406 2.67230469 -8.00335938 2.37195312 -8.5625 2.0625 C-8.5625 1.7325 -8.5625 1.4025 -8.5625 1.0625 C-7.3559375 1.0934375 -7.3559375 1.0934375 -6.125 1.125 C-3.0866539 1.050894 -3.0383461 0.074106 0 0 Z " fill="#1A6BB7" transform="translate(42.5625,60.9375)"/>
<path d="M0 0 C0.99 0 1.98 0 3 0 C3 2.64 3 5.28 3 8 C3.99 8 4.98 8 6 8 C6 8.66 6 9.32 6 10 C4.02 10 2.04 10 0 10 C0 6.7 0 3.4 0 0 Z " fill="#C1C6D1" transform="translate(103,90)"/>
<path d="M0 0 C0.33 0.66 0.66 1.32 1 2 C1.66 2.33 2.32 2.66 3 3 C2.67 3.66 2.34 4.32 2 5 C2 6.32 2 7.64 2 9 C0.35 8.67 -1.3 8.34 -3 8 C-3.33 5.69 -3.66 3.38 -4 1 C-3.01 1.33 -2.02 1.66 -1 2 C-0.67 1.34 -0.34 0.68 0 0 Z " fill="#1966C5" transform="translate(16,90)"/>
<path d="M0 0 C3.96 0 7.92 0 12 0 C11 2 11 2 7.75 3.1875 C4.22790825 3.95061988 2.38319499 4.0252106 -1 3 C-0.67 2.01 -0.34 1.02 0 0 Z " fill="#2C95D3" transform="translate(37,83)"/>
<path d="M0 0 C0.66 0.33 1.32 0.66 2 1 C0.16756741 5.03135171 -1.53228483 8.18248143 -5 11 C-5.99 11 -6.98 11 -8 11 C-6.63629701 8.00779732 -5.05091917 5.70973471 -2.875 3.25 C-2.33617187 2.63640625 -1.79734375 2.0228125 -1.2421875 1.390625 C-0.62730469 0.70226562 -0.62730469 0.70226562 0 0 Z " fill="#063292" transform="translate(66,69)"/>
<path d="M0 0 C3.21880117 3.7935871 5.6163187 7.65829477 8 12 C7.01 12.33 6.02 12.66 5 13 C1.68774552 11.34387276 1.23017425 8.35502069 0 5 C-0.1875 2.0625 -0.1875 2.0625 0 0 Z " fill="#268AC4" transform="translate(49,30)"/>
<path d="M0 0 C0.99 0 1.98 0 3 0 C3.33 1.98 3.66 3.96 4 6 C2.02 6.66 0.04 7.32 -2 8 C-2.66 6.68 -3.32 5.36 -4 4 C-3.34 3.67 -2.68 3.34 -2 3 C-1.34 3.33 -0.68 3.66 0 4 C-0.33 3.01 -0.66 2.02 -1 1 C-0.67 0.67 -0.34 0.34 0 0 Z " fill="#0437A5" transform="translate(68,74)"/>
<path d="M0 0 C1.32 0.33 2.64 0.66 4 1 C4 1.99 4 2.98 4 4 C4.66 4.33 5.32 4.66 6 5 C4.35 6.32 2.7 7.64 1 9 C0.67 7.68 0.34 6.36 0 5 C-0.99 5.33 -1.98 5.66 -3 6 C-3.33 5.01 -3.66 4.02 -4 3 C-2.35 3 -0.7 3 1 3 C0.67 2.01 0.34 1.02 0 0 Z " fill="#165DC2" transform="translate(64,51)"/>
<path d="M0 0 C0.99 0.33 1.98 0.66 3 1 C3 2.98 3 4.96 3 7 C3.99 7 4.98 7 6 7 C5.67 7.66 5.34 8.32 5 9 C3.68 8.34 2.36 7.68 1 7 C0.01 7.66 -0.98 8.32 -2 9 C-2.33 7.35 -2.66 5.7 -3 4 C-2.01 3.67 -1.02 3.34 0 3 C0 2.01 0 1.02 0 0 Z " fill="#3EC9F9" transform="translate(23,27)"/>
<path d="M0 0 C0.99 0.66 1.98 1.32 3 2 C2.34 2 1.68 2 1 2 C0.67 2.99 0.34 3.98 0 5 C-0.66 4.67 -1.32 4.34 -2 4 C-2.33 4.66 -2.66 5.32 -3 6 C-3 5.34 -3 4.68 -3 4 C-4.98 4.33 -6.96 4.66 -9 5 C-9.33 4.01 -9.66 3.02 -10 2 C-7.23735711 1.40267181 -4.83967231 1 -2 1 C-1.34 0.67 -0.68 0.34 0 0 Z " fill="#3092DC" transform="translate(32,85)"/>
<path d="M0 0 C0.66 0.66 1.32 1.32 2 2 C2.99 2 3.98 2 5 2 C4.3125 3.9375 4.3125 3.9375 3 6 C0.375 6.75 0.375 6.75 -2 7 C-2.6875 5.1875 -2.6875 5.1875 -3 3 C-1.5625 1.25 -1.5625 1.25 0 0 Z " fill="#30A6E8" transform="translate(38,74)"/>
<path d="M0 0 C0.99 0.33 1.98 0.66 3 1 C4.1875 4.0625 4.1875 4.0625 5 7 C3.02 7.33 1.04 7.66 -1 8 C-1.625 5.6875 -1.625 5.6875 -2 3 C-1.34 2.01 -0.68 1.02 0 0 Z " fill="#073693" transform="translate(2,98)"/>
<path d="M0 0 C0.33 0.66 0.66 1.32 1 2 C2.32 2.33 3.64 2.66 5 3 C5 5.97 5 8.94 5 12 C4.34 11.67 3.68 11.34 3 11 C3 9.68 3 8.36 3 7 C2.34 7.66 1.68 8.32 1 9 C1 7.35 1 5.7 1 4 C0.34 4 -0.32 4 -1 4 C-0.67 2.68 -0.34 1.36 0 0 Z " fill="#1E70CB" transform="translate(70,32)"/>
<path d="M0 0 C0.66 0.33 1.32 0.66 2 1 C1.9071875 2.11375 1.9071875 2.11375 1.8125 3.25 C2.03094296 6.45383006 2.90250005 7.64031256 5 10 C4.67 10.66 4.34 11.32 4 12 C3.01 11.34 2.02 10.68 1 10 C1 9.34 1 8.68 1 8 C0.01 8 -0.98 8 -2 8 C-2.125 5.125 -2.125 5.125 -2 2 C-1.34 1.34 -0.68 0.68 0 0 Z " fill="#2A98C1" transform="translate(28,26)"/>
<path d="M0 0 C-0.33 2.31 -0.66 4.62 -1 7 C-5.75 6.125 -5.75 6.125 -8 5 C-8.33 5.66 -8.66 6.32 -9 7 C-9 6.01 -9 5.02 -9 4 C-3.85714286 0 -3.85714286 0 0 0 Z " fill="#2A8AD5" transform="translate(40,91)"/>
<path d="M0 0 C3.20280069 0.26690006 4.7943912 0.83329016 7.3125 2.875 C9.80829964 7.49685119 9.32444962 11.85386857 9 17 C8.67 17 8.34 17 8 17 C7.98582031 16.32453125 7.97164063 15.6490625 7.95703125 14.953125 C7.75485222 9.11675597 7.75485222 9.11675597 4.5625 4.4375 C3.05869416 3.5939016 1.54222963 2.77111481 0 2 C0 1.34 0 0.68 0 0 Z " fill="#4871BA" transform="translate(119,83)"/>
<path d="M0 0 C0.598125 0.20625 1.19625 0.4125 1.8125 0.625 C1.4825 2.275 1.1525 3.925 0.8125 5.625 C1.4725 5.955 2.1325 6.285 2.8125 6.625 C1.4925 6.625 0.1725 6.625 -1.1875 6.625 C-3.4375 4.125 -3.4375 4.125 -5.1875 1.625 C-2.1875 -0.375 -2.1875 -0.375 0 0 Z " fill="#36B8F1" transform="translate(32.1875,42.375)"/>
<path d="M0 0 C1.32 0 2.64 0 4 0 C2.60812281 3.36370321 1.20568604 5.21906331 -2 7 C-5.25 7.1875 -5.25 7.1875 -8 7 C-6.68 6.67 -5.36 6.34 -4 6 C-4 5.34 -4 4.68 -4 4 C-2.66666667 2.66666667 -1.33333333 1.33333333 0 0 Z " fill="#1E72B8" transform="translate(44,103)"/>
<path d="M0 0 C1.32 0 2.64 0 4 0 C4.33 0.99 4.66 1.98 5 3 C5.99 2.34 6.98 1.68 8 1 C10.6875 0.875 10.6875 0.875 13 1 C12.67 2.32 12.34 3.64 12 5 C12 4.01 12 3.02 12 2 C11.0925 2.45375 10.185 2.9075 9.25 3.375 C6.83333333 4.58333333 4.41666667 5.79166667 2 7 C2 5.02 2 3.04 2 1 C1.34 0.67 0.68 0.34 0 0 Z " fill="#193B84" transform="translate(97,26)"/>
<path d="M0 0 C0.99 0.33 1.98 0.66 3 1 C3 2.98 3 4.96 3 7 C1.68 7.33 0.36 7.66 -1 8 C-1.66 6.02 -2.32 4.04 -3 2 C-2.01 1.34 -1.02 0.68 0 0 Z " fill="#0F41AC" transform="translate(4,117)"/>
<path d="M0 0 C0.66 0 1.32 0 2 0 C2 0.99 2 1.98 2 3 C3.32 3.66 4.64 4.32 6 5 C5.34 5 4.68 5 4 5 C4.33 5.99 4.66 6.98 5 8 C2.49642139 7.1654738 0.33214148 6.20628008 -2 5 C-1.34 3.35 -0.68 1.7 0 0 Z " fill="#208AD4" transform="translate(27,75)"/>
<path d="M0 0 C1.65 0 3.3 0 5 0 C5 1.98 5 3.96 5 6 C2.03 5.505 2.03 5.505 -1 5 C-0.67 3.35 -0.34 1.7 0 0 Z " fill="#2997E0" transform="translate(52,42)"/>
<path d="M0 0 C0.61875 0.33 1.2375 0.66 1.875 1 C3.91018344 2.14193235 3.91018344 2.14193235 6 2 C6.33 3.65 6.66 5.3 7 7 C5.00045254 7.04254356 2.99958364 7.04080783 1 7 C0 6 0 6 -0.0625 2.9375 C-0.041875 1.968125 -0.02125 0.99875 0 0 Z " fill="#32C5FA" transform="translate(111,26)"/>
<path d="M0 0 C2.45823172 3.68734758 3.01242616 6.69699971 4 11 C3.01 11 2.02 11 1 11 C0.67 9.35 0.34 7.7 0 6 C-0.99 6 -1.98 6 -3 6 C-2.67 5.01 -2.34 4.02 -2 3 C-1.34 3 -0.68 3 0 3 C0 2.01 0 1.02 0 0 Z " fill="#2DACD8" transform="translate(42,13)"/>
<path d="M0 0 C1.98 0 3.96 0 6 0 C2.38671875 4.6875 2.38671875 4.6875 1 6 C0.01 6 -0.98 6 -2 6 C-1.34 4.02 -0.68 2.04 0 0 Z " fill="#1757A7" transform="translate(25,105)"/>
<path d="M0 0 C0.66 0 1.32 0 2 0 C3.125 5.75 3.125 5.75 2 8 C0.68 7.34 -0.64 6.68 -2 6 C-1.34 4.02 -0.68 2.04 0 0 Z " fill="#1154BD" transform="translate(17,106)"/>
<path d="M0 0 C0.99 0 1.98 0 3 0 C2.67 0.99 2.34 1.98 2 3 C1.93259135 4.56118428 1.91485544 6.1250252 1.9375 7.6875 C1.94652344 8.49574219 1.95554687 9.30398437 1.96484375 10.13671875 C1.97644531 10.75160156 1.98804687 11.36648437 2 12 C1.01 11.67 0.02 11.34 -1 11 C-1.0270043 9.54176788 -1.04639787 8.08339325 -1.0625 6.625 C-1.07410156 5.81289062 -1.08570312 5.00078125 -1.09765625 4.1640625 C-1 2 -1 2 0 0 Z " fill="#3A67CA" transform="translate(66,87)"/>
<path d="M0 0 C-2.31 2.31 -4.62 4.62 -7 7 C-7.66 6.67 -8.32 6.34 -9 6 C-8.67 5.01 -8.34 4.02 -8 3 C-7.34 3 -6.68 3 -6 3 C-6 2.01 -6 1.02 -6 0 C-3 -1 -3 -1 0 0 Z " fill="#0E4092" transform="translate(25,112)"/>
<path d="M0 0 C0.66 0.33 1.32 0.66 2 1 C1.34 2.32 0.68 3.64 0 5 C-0.66 5 -1.32 5 -2 5 C-2 6.65 -2 8.3 -2 10 C-2.66 10 -3.32 10 -4 10 C-4.125 3.25 -4.125 3.25 -3 1 C-2.01 0.67 -1.02 0.34 0 0 Z " fill="#2E9DE3" transform="translate(49,92)"/>
<path d="M0 0 C1.66666667 0 3.33333333 0 5 0 C5 3.3 5 6.6 5 10 C4.01 10.495 4.01 10.495 3 11 C2.86722656 10.37351562 2.73445313 9.74703125 2.59765625 9.1015625 C2.42105469 8.28429687 2.24445313 7.46703125 2.0625 6.625 C1.80146484 5.40683594 1.80146484 5.40683594 1.53515625 4.1640625 C1.07669307 1.970537 1.07669307 1.970537 0 0 Z " fill="#254BA1" transform="translate(121,89)"/>
<path d="M0 0 C2.31 0 4.62 0 7 0 C7 0.66 7 1.32 7 2 C6.34 2 5.68 2 5 2 C4.84850702 5.62885324 4.84850702 5.62885324 6 9 C5.01 9 4.02 9 3 9 C2.87625 7.88625 2.7525 6.7725 2.625 5.625 C2.3534187 1.96896323 2.3534187 1.96896323 0 0 Z " fill="#258ECB" transform="translate(31,73)"/>
<path d="M0 0 C2.61984486 1.30992243 3.03394425 2.25045672 4 5 C3.625 8.25 3.625 8.25 3 11 C0.10551918 8.60890715 -0.62813667 6.71863329 -1 3 C-0.67 2.01 -0.34 1.02 0 0 Z " fill="#2FACEC" transform="translate(48,34)"/>
<path d="M0 0 C0.66 0.33 1.32 0.66 2 1 C2.6328125 3.06640625 2.6328125 3.06640625 3.125 5.5625 C3.29257812 6.38878906 3.46015625 7.21507812 3.6328125 8.06640625 C3.75398438 8.70449219 3.87515625 9.34257812 4 10 C2.35 9.67 0.7 9.34 -1 9 C-0.67 6.03 -0.34 3.06 0 0 Z " fill="#2C97BD" transform="translate(26,0)"/>
<path d="M0 0 C2.09350689 3.4019487 2.17942163 6.05272412 2 10 C0.5 8.625 0.5 8.625 -1 7 C-1 6.34 -1 5.68 -1 5 C-1.99 4.67 -2.98 4.34 -4 4 C-2.68 2.68 -1.36 1.36 0 0 Z " fill="#07389E" transform="translate(9,108)"/>
<path d="M0 0 C0.66 0 1.32 0 2 0 C2.93423645 3.01031744 3.04449911 3.86650268 2 7 C0.68 6.67 -0.64 6.34 -2 6 C-1.125 1.125 -1.125 1.125 0 0 Z " fill="#155ABA" transform="translate(10,91)"/>
<path d="M0 0 C0.66 0.66 1.32 1.32 2 2 C2.99 1.67 3.98 1.34 5 1 C5 1.66 5 2.32 5 3 C5.66 3.33 6.32 3.66 7 4 C4.525 5.485 4.525 5.485 2 7 C2 6.01 2 5.02 2 4 C0.68 3.67 -0.64 3.34 -2 3 C-1.34 2.67 -0.68 2.34 0 2 C0 1.34 0 0.68 0 0 Z " fill="#053699" transform="translate(66,48)"/>
<path d="M0 0 C4.875 3.625 4.875 3.625 6 7 C3.525 8.485 3.525 8.485 1 10 C0.67 6.7 0.34 3.4 0 0 Z " fill="#0942AB" transform="translate(66,41)"/>
<path d="M0 0 C1.9375 0.125 1.9375 0.125 4 1 C5.375 3.3125 5.375 3.3125 6 6 C5.125 8.3125 5.125 8.3125 4 10 C3.731875 9.2575 3.46375 8.515 3.1875 7.75 C2.05770579 5.13363446 0.79106798 3.19812889 -1 1 C-0.67 0.67 -0.34 0.34 0 0 Z " fill="#07379E" transform="translate(79,46)"/>
<path d="M0 0 C2.99332739 0.9977758 3.94766315 1.7522025 6 4 C4.768606 6.46278801 3.21935077 7.42497687 1 9 C0.67 6.03 0.34 3.06 0 0 Z " fill="#288BAD" transform="translate(15,31)"/>
<path d="M0 0 C2.125 2.125 2.125 2.125 4 5 C3.25 8.3125 3.25 8.3125 2 11 C0 9 0 9 -0.1953125 6.8359375 C-0.17210937 6.02382813 -0.14890625 5.21171875 -0.125 4.375 C-0.10695312 3.55773437 -0.08890625 2.74046875 -0.0703125 1.8984375 C-0.04710937 1.27195312 -0.02390625 0.64546875 0 0 Z M3 1 C3.99 1.495 3.99 1.495 5 2 C4.34 2.66 3.68 3.32 3 4 C3 3.01 3 2.02 3 1 Z " fill="#2C9EC8" transform="translate(37,21)"/>
<path d="M0 0 C0.99 0.99 1.98 1.98 3 3 C0.05613377 4.47193312 -2.37390036 3.84936173 -5.625 3.5625 C-6.81351563 3.46066406 -8.00203125 3.35882813 -9.2265625 3.25390625 C-10.14179687 3.17011719 -11.05703125 3.08632812 -12 3 C-12 2.67 -12 2.34 -12 2 C-11.21753906 1.93941406 -10.43507812 1.87882812 -9.62890625 1.81640625 C-8.61699219 1.73261719 -7.60507812 1.64882812 -6.5625 1.5625 C-5.55316406 1.48128906 -4.54382812 1.40007812 -3.50390625 1.31640625 C-1.06359221 1.26788532 -1.06359221 1.26788532 0 0 Z " fill="#164D68" transform="translate(54,80)"/>
<path d="M0 0 C0.66 0 1.32 0 2 0 C2 0.66 2 1.32 2 2 C2.99 2.33 3.98 2.66 5 3 C2.8614515 5.1385485 1.86724686 5.42655063 -1 6 C-1.33 4.68 -1.66 3.36 -2 2 C-1.34 2 -0.68 2 0 2 C0 1.34 0 0.68 0 0 Z " fill="#165DC1" transform="translate(60,58)"/>
<path d="M0 0 C2.97 0.495 2.97 0.495 6 1 C6 1.66 6 2.32 6 3 C6.66 3 7.32 3 8 3 C8 3.66 8 4.32 8 5 C2.25 4.125 2.25 4.125 0 3 C0 2.01 0 1.02 0 0 Z " fill="#2289D9" transform="translate(71,27)"/>
<path d="M0 0 C1.65 0 3.3 0 5 0 C4.01 0.33 3.02 0.66 2 1 C2.185625 1.5775 2.37125 2.155 2.5625 2.75 C3.04023546 5.20692525 2.75729364 6.64397534 2 9 C1.34 9 0.68 9 0 9 C0 6.03 0 3.06 0 0 Z " fill="#D5D5D6" transform="translate(77,91)"/>
<path d="M0 0 C0 0.66 0 1.32 0 2 C-1.65 2.66 -3.3 3.32 -5 4 C-5 3.34 -5 2.68 -5 2 C-7.31 2.33 -9.62 2.66 -12 3 C-7.86112344 0.24074896 -4.92824278 -0.13689563 0 0 Z " fill="#196AAB" transform="translate(32,84)"/>
<path d="M0 0 C0.66 1.32 1.32 2.64 2 4 C1.01 5.485 1.01 5.485 0 7 C-1.65 6.67 -3.3 6.34 -5 6 C-3.35 4.02 -1.7 2.04 0 0 Z " fill="#0E48A6" transform="translate(15,102)"/>
<path d="M0 0 C0.66 1.32 1.32 2.64 2 4 C1.34 4.66 0.68 5.32 0 6 C-0.99 5.67 -1.98 5.34 -3 5 C-3 4.34 -3 3.68 -3 3 C-3.66 2.67 -4.32 2.34 -5 2 C-2 0 -2 0 0 0 Z " fill="#1E79D0" transform="translate(45,57)"/>
<path d="M0 0 C0.99 0.99 1.98 1.98 3 3 C2.34 4.32 1.68 5.64 1 7 C0.67 6.34 0.34 5.68 0 5 C-0.66 5 -1.32 5 -2 5 C-1.125 1.125 -1.125 1.125 0 0 Z " fill="#3CC9FA" transform="translate(19,36)"/>
<path d="M0 0 C2 1 2 1 2.75 3.1875 C3.05194616 6.58439429 2.24302818 8.85586991 1 12 C0.67 12 0.34 12 0 12 C0 8.04 0 4.08 0 0 Z " fill="#2B93B7" transform="translate(15,8)"/>
<path d="M0 0 C-0.33 0.99 -0.66 1.98 -1 3 C-2.98 3 -4.96 3 -7 3 C-7.33 2.01 -7.66 1.02 -8 0 C-4.71023192 -1.09658936 -3.28696233 -0.79953138 0 0 Z " fill="#053497" transform="translate(69,66)"/>
<path d="M0 0 C1.32 0.33 2.64 0.66 4 1 C3.01 1 2.02 1 1 1 C1.5259375 1.86625 1.5259375 1.86625 2.0625 2.75 C3.14917407 5.35801776 2.93065133 6.39417629 2 9 C1.34 9 0.68 9 0 9 C0 6.03 0 3.06 0 0 Z " fill="#D0D1D4" transform="translate(95,91)"/>
<path d="M0 0 C-0.33 0.99 -0.66 1.98 -1 3 C-1 2.34 -1 1.68 -1 1 C-1.99 1 -2.98 1 -4 1 C-4 1.99 -4 2.98 -4 4 C-4.66 4 -5.32 4 -6 4 C-7.625 2 -7.625 2 -9 0 C-5.67465243 -1.10844919 -3.37817425 -0.84454356 0 0 Z " fill="#3B63BE" transform="translate(119,89)"/>
<path d="M0 0 C0.99 0.99 1.98 1.98 3 3 C1 5 1 5 -1.625 5.125 C-2.40875 5.08375 -3.1925 5.0425 -4 5 C-4 4.34 -4 3.68 -4 3 C-2.68 2.67 -1.36 2.34 0 2 C0 1.34 0 0.68 0 0 Z " fill="#073799" transform="translate(83,33)"/>
<path d="M0 0 C0.99 0.99 1.98 1.98 3 3 C1.02 3.99 -0.96 4.98 -3 6 C-3 3 -3 3 -1.5 1.3125 C-0.7575 0.6628125 -0.7575 0.6628125 0 0 Z " fill="#053296" transform="translate(10,120)"/>
<path d="M0 0 C2 2 2 2 2 6 C2.66 6.33 3.32 6.66 4 7 C2.68 7 1.36 7 0 7 C-0.38133299 5.0085944 -0.71325582 3.00720923 -1 1 C-0.67 0.67 -0.34 0.34 0 0 Z " fill="#3B579A" transform="translate(111,94)"/>
<path d="M0 0 C1.32 1.65 2.64 3.3 4 5 C0.79604584 5 -1.09399739 4.25664978 -4 3 C-2 1 -2 1 0 0 Z " fill="#0338AB" transform="translate(76,69)"/>
<path d="M0 0 C0.99 0 1.98 0 3 0 C4.125 3.75 4.125 3.75 3 6 C2.01 5.67 1.02 5.34 0 5 C0 3.35 0 1.7 0 0 Z " fill="#32B1EE" transform="translate(39,34)"/>
<path d="M0 0 C3 3.75 3 3.75 3 6 C1.35 6.33 -0.3 6.66 -2 7 C-1.34 4.69 -0.68 2.38 0 0 Z " fill="#2FA6D0" transform="translate(34,21)"/>
<path d="M0 0 C0 1.98 0 3.96 0 6 C-0.66 6 -1.32 6 -2 6 C-2 5.01 -2 4.02 -2 3 C-2.99 3 -3.98 3 -5 3 C-5 2.34 -5 1.68 -5 1 C-1.125 0 -1.125 0 0 0 Z " fill="#304F98" transform="translate(102,95)"/>
<path d="M0 0 C0 0.66 0 1.32 0 2 C-1.98 2.33 -3.96 2.66 -6 3 C-6.33 2.01 -6.66 1.02 -7 0 C-4.3333581 -1.33332095 -2.83319697 -0.67102033 0 0 Z " fill="#2784D6" transform="translate(29,87)"/>
<path d="M0 0 C2.50037734 2.17424117 3.43628586 3.73045798 4 7 C1.525 6.01 1.525 6.01 -1 5 C-0.67 3.35 -0.34 1.7 0 0 Z " fill="#207CC7" transform="translate(57,42)"/>
<path d="M0 0 C1.485 0.99 1.485 0.99 3 2 C2.34 2 1.68 2 1 2 C1.33 2.99 1.66 3.98 2 5 C1.01 5.99 0.02 6.98 -1 8 C-1.04241723 5.66705225 -1.04092937 3.33297433 -1 1 C-0.67 0.67 -0.34 0.34 0 0 Z " fill="#06359A" transform="translate(78,38)"/>
<path d="M0 0 C1.98 0.495 1.98 0.495 4 1 C3.34 2.32 2.68 3.64 2 5 C1.01 4.34 0.02 3.68 -1 3 C-0.67 2.01 -0.34 1.02 0 0 Z " fill="#92A9DC" transform="translate(111,16)"/>
<path d="M0 0 C1.98 0.495 1.98 0.495 4 1 C3.34 2.32 2.68 3.64 2 5 C1.01 4.34 0.02 3.68 -1 3 C-0.67 2.01 -0.34 1.02 0 0 Z " fill="#92A9DC" transform="translate(98,16)"/>
<path d="M0 0 C1.32 1.32 2.64 2.64 4 4 C2.02 4.99 2.02 4.99 0 6 C0 4.02 0 2.04 0 0 Z " fill="#3CCAFC" transform="translate(16,16)"/>
</svg>
